<svg width="120" height="120" viewBox="0 0 120 120" fill="none" xmlns="http://www.w3.org/2000/svg">
<g clip-path="url(#clip0_1_2)">
<path d="M8.3 -6.30225e-06H111.6C112.691 -0.00264407 113.771 0.210241 114.779 0.626421C115.788 1.0426 116.704 1.65387 117.475 2.42513C118.246 3.19638 118.857 4.11241 119.274 5.1206C119.69 6.1288 119.903 7.20928 119.9 8.29999V111.6C119.903 112.691 119.69 113.771 119.274 114.779C118.857 115.788 118.246 116.704 117.475 117.475C116.704 118.246 115.788 118.857 114.779 119.274C113.771 119.69 112.691 119.903 111.6 119.9H8.3C7.20929 119.903 6.1288 119.69 5.12061 119.274C4.11242 118.857 3.19638 118.246 2.42513 117.475C1.65388 116.704 1.04261 115.788 0.626429 114.779C0.210249 113.771 -0.00263644 112.691 1.32715e-06 111.6V8.29999C-0.00263644 7.20928 0.210249 6.1288 0.626429 5.1206C1.04261 4.11241 1.65388 3.19638 2.42513 2.42513C3.19638 1.65387 4.11242 1.0426 5.12061 0.626421C6.1288 0.210241 7.20929 -0.00264407 8.3 -6.30225e-06V-6.30225e-06Z" fill="#222226"/>
<path d="M22 12.5L21.5 13.7C20.7678 13.414 19.9857 13.278 19.2 13.3C17.7 13.3 16.9 13.8 16.9 15V17H20.5L20.3 18.2H16.8V26.2H15.1V18.2H12.6V17H15.2V15C15.2 13.2 16.9 12 19.1 12C20.094 11.9037 21.0956 12.0764 22 12.5V12.5Z" fill="#09C295"/>
<path d="M28.53 25.1C29.1063 25.0857 29.6708 24.9329 30.1755 24.6544C30.6803 24.3759 31.1106 23.9799 31.43 23.5V16.2H33.13V26.2H31.63L31.53 24.9C31.1086 25.3919 30.5877 25.7889 30.0016 26.0647C29.4156 26.3405 28.7776 26.4889 28.13 26.5C26.03 26.5 25.03 25.4 25.03 23.6V16.3H26.73V23.4C26.73 24.5 27.23 25.1 28.53 25.1Z" fill="#09C295"/>
<path d="M38.63 16.2L38.73 17.6C39.1788 17.1153 39.7192 16.7244 40.3199 16.4498C40.9206 16.1752 41.5698 16.0223 42.23 16C44.33 16 45.23 17.1 45.23 19V26.2H43.63V20.1C43.63 18.1 43.43 17.2 41.83 17.2C41.2454 17.2286 40.6763 17.3981 40.1714 17.6941C39.6664 17.9901 39.2405 18.4038 38.93 18.9V26.2H37.23V16.2H38.63Z" fill="#09C295"/>
<path d="M57 24L57.8 25.1C56.7469 25.8508 55.493 26.2688 54.2 26.3C51 26.3 49.2 24.3 49.2 21.1C49.2 18.1 51 15.9 54.2 15.9C55.5033 15.8671 56.777 16.2917 57.8 17.1L56.9 18.2C56.0808 17.6204 55.1035 17.3062 54.1 17.3C52.2 17.3 50.9 18.6 50.9 21.2C50.9 23.8 52.2 25 54.1 25C55.1523 25.0067 56.1754 24.6539 57 24Z" fill="#09C295"/>
<path d="M67.23 26.3C64.93 26.3 63.63 25.1 63.63 23.3V17.3H61.13V16.1H63.63V13.8L65.33 13.6V16.1H69L68.8 17.3H65.3V23.2C65.3 24.3 65.9 24.9 67.4 24.9C68.1295 24.9004 68.8489 24.7291 69.5 24.4L70.2 25.5C69.308 26.0479 68.2765 26.3257 67.23 26.3V26.3Z" fill="#09C295"/>
<path d="M82.23 24.9V26.1H74.23V24.9H77.53V17.4H74.33V16.2H79.23V24.9H82.23ZM79.13 12.6C79.1501 12.8406 79.0972 13.0816 78.9782 13.2917C78.8591 13.5017 78.6795 13.671 78.4628 13.7773C78.246 13.8836 78.0022 13.9221 77.7633 13.8878C77.5243 13.8534 77.3013 13.7477 77.1233 13.5846C76.9453 13.4214 76.8207 13.2084 76.7657 12.9733C76.7107 12.7383 76.7279 12.4921 76.815 12.2669C76.9022 12.0418 77.0552 11.8481 77.2541 11.7113C77.453 11.5745 77.6886 11.5008 77.93 11.5C78.0817 11.4905 78.2337 11.5118 78.377 11.5624C78.5203 11.6131 78.6519 11.6921 78.7639 11.7948C78.8759 11.8975 78.9661 12.0218 79.029 12.1601C79.0919 12.2984 79.1263 12.4481 79.13 12.6V12.6Z" fill="#09C295"/>
<path d="M94.63 21.1C94.63 24.1 93.03 26.3 90.03 26.3C87.03 26.3 85.43 24.3 85.43 21.1C85.43 17.9 87 15.9 90 15.9C93 15.9 94.63 18 94.63 21.1ZM87.23 21.1C87.23 23.8 88.13 25 90.03 25C91.93 25 92.83 23.8 92.83 21.1C92.83 18.4 91.93 17.2 90.03 17.2C88.13 17.2 87.23 18.5 87.23 21.1V21.1Z" fill="#09C295"/>
<path d="M99.63 16.2L99.73 17.6C100.179 17.1153 100.719 16.7244 101.32 16.4498C101.921 16.1752 102.57 16.0223 103.23 16C105.33 16 106.23 17.1 106.23 19V26.2H104.63V20.1C104.63 18.1 104.43 17.2 102.83 17.2C102.245 17.2286 101.676 17.3981 101.171 17.6941C100.666 17.9901 100.241 18.4038 99.93 18.9V26.2H98.23V16.2H99.63Z" fill="#09C295"/>
<path d="M22 30.2L21.5 31.4C20.7678 31.114 19.9857 30.978 19.2 31C17.7 31 16.9 31.5 16.9 32.7V34.7H20.5L20.3 35.9H16.8V43.9H15.1V35.9H12.6V34.7H15.2V32.7C15.2 30.9 16.9 29.7 19.1 29.7C20.0879 29.7029 21.0682 29.8719 22 30.2V30.2Z" fill="#7AA2F7"/>
<path d="M28.53 42.8C29.1063 42.7857 29.6708 42.6329 30.1755 42.3544C30.6803 42.0759 31.1106 41.6799 31.43 41.2V33.9H33.13V43.9H31.63L31.53 42.6C31.1086 43.0919 30.5877 43.4889 30.0016 43.7647C29.4156 44.0405 28.7776 44.1889 28.13 44.2C26.03 44.2 25.03 43.1 25.03 41.3V34H26.73V41C26.73 42.3 27.23 42.8 28.53 42.8Z" fill="#7AA2F7"/>
<path d="M38.63 33.9L38.73 35.3C39.1788 34.8153 39.7192 34.4244 40.3199 34.1498C40.9206 33.8752 41.5698 33.7223 42.23 33.7C44.33 33.7 45.23 34.8 45.23 36.7V43.9H43.63V37.8C43.63 35.8 43.43 34.9 41.83 34.9C41.2454 34.9286 40.6763 35.0981 40.1714 35.3941C39.6664 35.6901 39.2405 36.1038 38.93 36.6V43.9H37.23V33.9H38.63Z" fill="#7AA2F7"/>
<path d="M57 41.8L57.8 42.9C56.7469 43.6508 55.493 44.0688 54.2 44.1C51 44.1 49.2 42.1 49.2 38.9C49.2 35.9 51 33.7 54.2 33.7C55.5033 33.6672 56.777 34.0917 57.8 34.9L56.9 36C56.0808 35.4204 55.1035 35.1062 54.1 35.1C52.2 35.1 50.9 36.4 50.9 39C50.9 41.6 52.2 42.8 54.1 42.8C55.1441 42.7598 56.153 42.4119 57 41.8V41.8Z" fill="#7AA2F7"/>
<path d="M67.23 44.1C64.93 44.1 63.63 42.9 63.63 41.1V35.1H61.13V33.9H63.63V31.6L65.33 31.4V33.9H69L68.8 35.1H65.3V41C65.3 42.1 65.9 42.7 67.4 42.7C68.1295 42.7004 68.8489 42.5291 69.5 42.2L70.2 43.3C69.2896 43.8038 68.2703 44.0783 67.23 44.1V44.1Z" fill="#7AA2F7"/>
<path d="M82.23 42.6V43.8H74.23V42.6H77.53V35.1H74.33V33.9H79.23V42.6H82.23ZM79.13 30.3C79.1501 30.5406 79.0972 30.7816 78.9782 30.9917C78.8591 31.2017 78.6795 31.371 78.4628 31.4773C78.246 31.5837 78.0022 31.6222 77.7633 31.5878C77.5243 31.5534 77.3013 31.4477 77.1233 31.2846C76.9453 31.1214 76.8207 30.9084 76.7657 30.6733C76.7107 30.4383 76.7279 30.1921 76.815 29.9669C76.9022 29.7418 77.0552 29.5481 77.2541 29.4113C77.453 29.2745 77.6886 29.2008 77.93 29.2C78.0817 29.1905 78.2337 29.2118 78.377 29.2624C78.5203 29.3131 78.6519 29.3921 78.7639 29.4948C78.8759 29.5975 78.9661 29.7218 79.029 29.8601C79.0919 29.9985 79.1263 30.1481 79.13 30.3V30.3Z" fill="#7AA2F7"/>
<path d="M94.63 38.9C94.63 41.9 93.03 44.1 90.03 44.1C87.03 44.1 85.43 42.1 85.43 38.9C85.43 35.7 87 33.7 90 33.7C93 33.7 94.63 35.7 94.63 38.9ZM87.23 38.9C87.23 41.6 88.13 42.8 90.03 42.8C91.93 42.8 92.83 41.6 92.83 38.9C92.83 36.2 91.93 35 90 35C88.07 35 87.23 36.2 87.23 38.9V38.9Z" fill="#7AA2F7"/>
<path d="M99.63 33.9L99.73 35.3C100.179 34.8153 100.719 34.4244 101.32 34.1498C101.921 33.8752 102.57 33.7223 103.23 33.7C105.33 33.7 106.23 34.8 106.23 36.7V43.9H104.63V37.8C104.63 35.8 104.43 34.9 102.83 34.9C102.245 34.9286 101.676 35.0981 101.171 35.3941C100.666 35.6901 100.241 36.1038 99.93 36.6V43.9H98.23V33.9H99.63Z" fill="#7AA2F7"/>
<path d="M22 46.4L21.5 47.6C20.7678 47.314 19.9857 47.178 19.2 47.2C17.7 47.2 16.9 47.7 16.9 48.9V50.9H20.5L20.3 52H16.8V60H15.1V52H12.6V50.8H15.2V48.8C15.2 47 16.9 45.8 19.1 45.8C20.0989 45.7858 21.0887 45.9906 22 46.4V46.4Z" fill="#BB9AF7"/>
<path d="M28.53 58.9C29.1063 58.8858 29.6708 58.7329 30.1755 58.4544C30.6803 58.1759 31.1106 57.7799 31.43 57.3V50H33.13V60H31.63L31.53 58.7C31.1086 59.192 30.5877 59.5889 30.0016 59.8647C29.4156 60.1405 28.7776 60.2889 28.13 60.3C26.03 60.3 25.03 59.2 25.03 57.4V50H26.73V57.1C26.73 58.4 27.23 58.9 28.53 58.9Z" fill="#BB9AF7"/>
<path d="M38.63 50L38.73 51.4C39.1788 50.9153 39.7192 50.5244 40.3199 50.2498C40.9206 49.9751 41.5698 49.8223 42.23 49.8C44.33 49.8 45.23 50.9 45.23 52.8V60H43.63V53.9C43.63 51.9 43.43 51 41.83 51C41.2454 51.0285 40.6763 51.1981 40.1714 51.4941C39.6664 51.7901 39.2405 52.2038 38.93 52.7V60H37.23V50H38.63Z" fill="#BB9AF7"/>
<path d="M57 57.9L57.8 59C56.7469 59.7508 55.493 60.1688 54.2 60.2C51 60.2 49.2 58.2 49.2 55C49.2 52 51 49.8 54.2 49.8C55.5033 49.7671 56.777 50.1917 57.8 51L56.9 52.1C56.0808 51.5204 55.1035 51.2062 54.1 51.2C52.2 51.2 50.9 52.5 50.9 55.1C50.9 57.7 52.2 58.9 54.1 58.9C55.1523 58.9067 56.1754 58.5539 57 57.9Z" fill="#BB9AF7"/>
<path d="M67.23 60.2C64.93 60.2 63.63 59 63.63 57.2V51.2H61.13V50H63.63V47.7L65.33 47.5V50H69L68.8 51.2H65.3V57.1C65.3 58.2 65.9 58.8 67.4 58.8C68.1295 58.8004 68.8489 58.6291 69.5 58.3L70.2 59.4C69.2896 59.9038 68.2703 60.1783 67.23 60.2V60.2Z" fill="#BB9AF7"/>
<path d="M82.23 58.7V60H74.23V58.8H77.53V51.3H74.33V50H79.23V58.7H82.23ZM79.13 46.5C79.1501 46.7406 79.0972 46.9816 78.9782 47.1917C78.8591 47.4017 78.6795 47.571 78.4628 47.6773C78.246 47.7837 78.0022 47.8221 77.7633 47.7878C77.5243 47.7534 77.3013 47.6477 77.1233 47.4846C76.9453 47.3214 76.8207 47.1084 76.7657 46.8733C76.7107 46.6383 76.7279 46.3921 76.815 46.1669C76.9022 45.9418 77.0552 45.7481 77.2541 45.6113C77.453 45.4745 77.6886 45.4008 77.93 45.4C78.0833 45.3828 78.2384 45.3987 78.3851 45.4465C78.5317 45.4943 78.6664 45.5729 78.7801 45.6772C78.8938 45.7814 78.9839 45.9087 79.0442 46.0507C79.1046 46.1926 79.1338 46.3458 79.13 46.5V46.5Z" fill="#BB9AF7"/>
<path d="M94.63 55C94.63 58 93.03 60.2 90.03 60.2C87.03 60.2 85.43 58.2 85.43 55C85.43 51.8 87 49.8 90 49.8C93 49.8 94.63 51.8 94.63 55ZM87.23 55C87.23 57.7 88.13 58.9 90.03 58.9C91.93 58.9 92.83 57.7 92.83 55C92.83 52.3 91.93 51.1 90.03 51.1C88.13 51.1 87.23 52.3 87.23 55V55Z" fill="#BB9AF7"/>
<path d="M99.63 50L99.73 51.4C100.179 50.9153 100.719 50.5244 101.32 50.2498C101.921 49.9751 102.57 49.8223 103.23 49.8C105.33 49.8 106.23 50.9 106.23 52.8V60H104.63V53.9C104.63 51.9 104.43 51 102.83 51C102.245 51.0285 101.676 51.1981 101.171 51.4941C100.666 51.7901 100.241 52.2038 99.93 52.7V60H98.23V50H99.63Z" fill="#BB9AF7"/>
<path d="M22 62.5L21.5 63.7C20.7678 63.414 19.9857 63.278 19.2 63.3C17.7 63.3 16.9 63.8 16.9 65V67H20.5L20.3 68.2H16.8V76.2H15.1V68.2H12.6V67H15.2V65C15.2 63.2 16.9 62 19.1 62C20.094 61.9037 21.0956 62.0764 22 62.5V62.5Z" fill="#F7768E"/>
<path d="M28.53 75.1C29.1063 75.0857 29.6708 74.9329 30.1755 74.6544C30.6803 74.3759 31.1106 73.9799 31.43 73.5V66.2H33.13V76.2H31.63L31.53 74.9C31.1086 75.3919 30.5877 75.7889 30.0016 76.0647C29.4156 76.3405 28.7776 76.4889 28.13 76.5C26.03 76.5 25.03 75.4 25.03 73.6V66.3H26.73V73.4C26.73 74.5 27.23 75.1 28.53 75.1Z" fill="#F7768E"/>
<path d="M38.63 66.2L38.73 67.6C39.1788 67.1153 39.7192 66.7244 40.3199 66.4498C40.9206 66.1752 41.5698 66.0223 42.23 66C44.33 66 45.23 67.1 45.23 69V76.2H43.63V70.1C43.63 68.1 43.43 67.2 41.83 67.2C41.2454 67.2286 40.6763 67.3981 40.1714 67.6941C39.6664 67.9901 39.2405 68.4038 38.93 68.9V76.2H37.23V66.2H38.63Z" fill="#F7768E"/>
<path d="M57 74L57.8 75.1C56.7469 75.8508 55.493 76.2688 54.2 76.3C51 76.3 49.2 74.3 49.2 71.1C49.2 68.1 51 65.9 54.2 65.9C55.5033 65.8671 56.777 66.2917 57.8 67.1L56.9 68.2C56.0808 67.6204 55.1035 67.3062 54.1 67.3C52.2 67.3 50.9 68.6 50.9 71.2C50.9 73.8 52.2 75 54.1 75C55.1523 75.0067 56.1754 74.6539 57 74V74Z" fill="#F7768E"/>
<path d="M67.23 76.3C64.93 76.3 63.63 75.1 63.63 73.3V67.3H61.13V66.1H63.63V63.8L65.33 63.6V66.1H69L68.8 67.3H65.3V73.2C65.3 74.3 65.9 74.9 67.4 74.9C68.1295 74.9004 68.8489 74.7291 69.5 74.4L70.2 75.5C69.308 76.0479 68.2765 76.3257 67.23 76.3V76.3Z" fill="#F7768E"/>
<path d="M82.23 74.9V76.1H74.23V74.9H77.53V67.4H74.33V66.2H79.23V74.9H82.23ZM79.13 62.6C79.1501 62.8406 79.0972 63.0816 78.9782 63.2917C78.8591 63.5017 78.6795 63.671 78.4628 63.7773C78.246 63.8836 78.0022 63.9221 77.7633 63.8878C77.5243 63.8534 77.3013 63.7477 77.1233 63.5846C76.9453 63.4214 76.8207 63.2084 76.7657 62.9733C76.7107 62.7383 76.7279 62.4921 76.815 62.2669C76.9022 62.0418 77.0552 61.8481 77.2541 61.7113C77.453 61.5745 77.6886 61.5008 77.93 61.5C78.0817 61.4905 78.2337 61.5118 78.377 61.5624C78.5203 61.6131 78.6519 61.6921 78.7639 61.7948C78.8759 61.8975 78.9661 62.0218 79.029 62.1601C79.0919 62.2984 79.1263 62.4481 79.13 62.6V62.6Z" fill="#F7768E"/>
<path d="M94.63 71.1C94.63 74.1 93.03 76.3 90.03 76.3C87.03 76.3 85.43 74.3 85.43 71.1C85.43 67.9 87 65.9 90 65.9C93 65.9 94.63 68 94.63 71.1ZM87.23 71.1C87.23 73.8 88.13 75 90.03 75C91.93 75 92.83 73.8 92.83 71.1C92.83 68.4 91.93 67.2 90.03 67.2C88.13 67.2 87.23 68.5 87.23 71.1V71.1Z" fill="#F7768E"/>
<path d="M99.63 66.2L99.73 67.6C100.179 67.1153 100.719 66.7244 101.32 66.4498C101.921 66.1752 102.57 66.0223 103.23 66C105.33 66 106.23 67.1 106.23 69V76.2H104.63V70.1C104.63 68.1 104.43 67.2 102.83 67.2C102.245 67.2286 101.676 67.3981 101.171 67.6941C100.666 67.9901 100.241 68.4038 99.93 68.9V76.2H98.23V66.2H99.63Z" fill="#F7768E"/>
<path d="M22 78.6L21.5 79.8C20.7678 79.514 19.9857 79.378 19.2 79.4C17.7 79.4 16.9 79.9 16.9 81.1V83.1H20.5L20.3 84.3H16.8V92.3H15.1V84.3H12.6V83H15.2V81C15.2 79.2 16.9 78 19.1 78C20.0872 78.0833 21.0608 78.2848 22 78.6V78.6Z" fill="#FF9E64"/>
<path d="M28.53 91.2C29.1063 91.1857 29.6708 91.0329 30.1755 90.7544C30.6803 90.4759 31.1106 90.0799 31.43 89.6V82.3H33.13V92.3H31.63L31.53 91C31.1086 91.4919 30.5877 91.8889 30.0016 92.1647C29.4156 92.4405 28.7776 92.5889 28.13 92.6C26.03 92.6 25.03 91.5 25.03 89.7V82.4H26.73V89.5C26.73 90.7 27.23 91.2 28.53 91.2Z" fill="#FF9E64"/>
<path d="M38.63 82.3L38.73 83.7C39.1788 83.2153 39.7192 82.8244 40.3199 82.5498C40.9206 82.2752 41.5698 82.1223 42.23 82.1C44.33 82.1 45.23 83.2 45.23 85.1V92.3H43.63V86.2C43.63 84.2 43.43 83.3 41.83 83.3C41.2454 83.3286 40.6763 83.4981 40.1714 83.7941C39.6664 84.0901 39.2405 84.5038 38.93 85V92.3H37.23V82.3H38.63Z" fill="#FF9E64"/>
<path d="M57 90.2L57.8 91.3C56.7469 92.0508 55.493 92.4688 54.2 92.5C51 92.5 49.2 90.5 49.2 87.3C49.2 84.3 51 82.1 54.2 82.1C55.5033 82.0672 56.777 82.4917 57.8 83.3L56.9 84.4C56.0808 83.8204 55.1035 83.5062 54.1 83.5C52.2 83.5 50.9 84.8 50.9 87.4C50.9 90 52.2 91.2 54.1 91.2C55.1348 91.1132 56.1316 90.7695 57 90.2V90.2Z" fill="#FF9E64"/>
<path d="M67.23 92.5C64.93 92.5 63.63 91.3 63.63 89.5V83.5H61.13V82.3H63.63V80L65.33 79.8V82.3H69L68.8 83.5H65.3V89.4C65.3 90.5 65.9 91.1 67.4 91.1C68.1295 91.1004 68.8489 90.9291 69.5 90.6L70.2 91.7C69.2896 92.2037 68.2703 92.4783 67.23 92.5V92.5Z" fill="#FF9E64"/>
<path d="M82.23 91V92.2H74.23V91H77.53V83.5H74.33V82.3H79.23V91H82.23ZM79.13 78.7C79.1501 78.9406 79.0972 79.1816 78.9782 79.3917C78.8591 79.6017 78.6795 79.771 78.4628 79.8773C78.246 79.9836 78.0022 80.0221 77.7633 79.9878C77.5243 79.9534 77.3013 79.8477 77.1233 79.6846C76.9453 79.5214 76.8207 79.3084 76.7657 79.0733C76.7107 78.8383 76.7279 78.5921 76.815 78.3669C76.9022 78.1418 77.0552 77.9481 77.2541 77.8113C77.453 77.6745 77.6886 77.6008 77.93 77.6C78.0817 77.5905 78.2337 77.6118 78.377 77.6624C78.5203 77.7131 78.6519 77.7921 78.7639 77.8948C78.8759 77.9975 78.9661 78.1218 79.029 78.2601C79.0919 78.3985 79.1263 78.5481 79.13 78.7V78.7Z" fill="#FF9E64"/>
<path d="M94.63 87.2C94.63 90.2 93.03 92.4 90.03 92.4C87.03 92.4 85.43 90.4 85.43 87.2C85.43 84 87 82 90 82C93 82 94.63 84.1 94.63 87.2ZM87.23 87.3C87.23 90 88.13 91.2 90.03 91.2C91.93 91.2 92.83 90 92.83 87.3C92.83 84.6 91.93 83.4 90.03 83.4C88.13 83.4 87.23 84.6 87.23 87.3V87.3Z" fill="#FF9E64"/>
<path d="M99.63 82.3L99.73 83.7C100.179 83.2153 100.719 82.8244 101.32 82.5498C101.921 82.2752 102.57 82.1223 103.23 82.1C105.33 82.1 106.23 83.2 106.23 85.1V92.3H104.63V86.2C104.63 84.2 104.43 83.3 102.83 83.3C102.245 83.3286 101.676 83.4981 101.171 83.7941C100.666 84.0901 100.241 84.5038 99.93 85V92.3H98.23V82.3H99.63Z" fill="#FF9E64"/>
<path d="M22 94.7L21.5 95.9C20.7678 95.614 19.9857 95.478 19.2 95.5C17.7 95.5 16.9 96 16.9 97.2V99.2H20.5L20.3 100.4H16.8V108.4H15.1V100.4H12.6V99.2H15.2V97.2C15.2 95.4 16.9 94.2 19.1 94.2C20.0879 94.2029 21.0682 94.3719 22 94.7V94.7Z" fill="#CE9C3D"/>
<path d="M28.53 107.3C29.1063 107.286 29.6708 107.133 30.1755 106.854C30.6803 106.576 31.1106 106.18 31.43 105.7V98.4H33.13V108.4H31.63L31.53 107.1C31.1086 107.592 30.5877 107.989 30.0016 108.265C29.4156 108.541 28.7776 108.689 28.13 108.7C26.03 108.7 25.03 107.6 25.03 105.8V98.5H26.73V105.6C26.73 106.8 27.23 107.3 28.53 107.3Z" fill="#CE9C3D"/>
<path d="M38.63 98.4L38.73 99.8C39.1788 99.3154 39.7192 98.9244 40.3199 98.6498C40.9206 98.3752 41.5698 98.2223 42.23 98.2C44.33 98.2 45.23 99.3 45.23 101.2V108.4H43.63V102.3C43.63 100.3 43.43 99.4 41.83 99.4C41.2454 99.4286 40.6763 99.5981 40.1714 99.8941C39.6664 100.19 39.2405 100.604 38.93 101.1V108.4H37.23V98.4H38.63Z" fill="#CE9C3D"/>
<path d="M57 106.3L57.8 107.4C56.7469 108.151 55.493 108.569 54.2 108.6C51 108.6 49.2 106.6 49.2 103.4C49.2 100.4 51 98.2 54.2 98.2C55.5033 98.1672 56.777 98.5917 57.8 99.4L56.9 100.5C56.0808 99.9204 55.1035 99.6062 54.1 99.6C52.2 99.6 50.9 100.9 50.9 103.5C50.9 106.1 52.2 107.3 54.1 107.3C55.1441 107.26 56.153 106.912 57 106.3V106.3Z" fill="#CE9C3D"/>
<path d="M67.23 108.6C64.93 108.6 63.63 107.4 63.63 105.6V99.6H61.13V98.4H63.63V96.1L65.33 95.9V98.4H69L68.8 99.6H65.3V105.5C65.3 106.6 65.9 107.2 67.4 107.2C68.1295 107.2 68.8489 107.029 69.5 106.7L70.2 107.8C69.2896 108.304 68.2703 108.578 67.23 108.6Z" fill="#CE9C3D"/>
<path d="M82.23 107.1V108.3H74.23V107.1H77.53V99.6H74.33V98.4H79.23V107.1H82.23ZM79.13 94.9C79.1501 95.1406 79.0972 95.3817 78.9782 95.5917C78.8591 95.8017 78.6795 95.971 78.4628 96.0773C78.246 96.1837 78.0022 96.2222 77.7633 96.1878C77.5243 96.1534 77.3013 96.0477 77.1233 95.8846C76.9453 95.7214 76.8207 95.5084 76.7657 95.2733C76.7107 95.0383 76.7279 94.7921 76.815 94.5669C76.9022 94.3418 77.0552 94.1481 77.2541 94.0113C77.453 93.8745 77.6886 93.8009 77.93 93.8C78.0858 93.767 78.2472 93.7716 78.4008 93.8136C78.5544 93.8555 78.6958 93.9335 78.8132 94.0411C78.9305 94.1487 79.0205 94.2828 79.0756 94.4322C79.1308 94.5816 79.1494 94.742 79.13 94.9V94.9Z" fill="#CE9C3D"/>
<path d="M94.63 103.4C94.63 106.4 93.03 108.6 90.03 108.6C87.03 108.6 85.43 106.6 85.43 103.4C85.43 100.2 87 98.2 90 98.2C93 98.2 94.63 100.2 94.63 103.4ZM87.23 103.4C87.23 106.1 88.13 107.3 90.03 107.3C91.93 107.3 92.83 106.1 92.83 103.4C92.83 100.7 91.93 99.5 90.03 99.5C88.13 99.5 87.23 100.7 87.23 103.4V103.4Z" fill="#CE9C3D"/>
<path d="M99.63 98.4L99.73 99.8C100.179 99.3154 100.719 98.9244 101.32 98.6498C101.921 98.3752 102.57 98.2223 103.23 98.2C105.33 98.2 106.23 99.3 106.23 101.2V108.4H104.63V102.3C104.63 100.3 104.43 99.4 102.83 99.4C102.245 99.4286 101.676 99.5981 101.171 99.8941C100.666 100.19 100.241 100.604 99.93 101.1V108.4H98.23V98.4H99.63Z" fill="#CE9C3D"/>
<path d="M111.99 94.2H10.9V113.02H111.99V94.2Z" fill="#222226"/>
<path d="M70.24 23.24H67.13V29.2H70.24V23.24Z" fill="#222226"/>
<path d="M93.44 88.6H92.93L92.87 88.54C89.3333 85.6808 86.3478 82.2005 84.06 78.27C83.8497 77.9235 83.6193 77.5896 83.37 77.27C83.2236 76.9286 83.06 76.5949 82.88 76.27L82.76 76C83.3236 74.6121 83.6122 73.1279 83.61 71.63V69.2C83.6073 67.0559 83.0154 64.9538 81.8991 63.1232C80.7828 61.2927 79.1849 59.8041 77.28 58.82C77.5121 57.8979 77.6296 56.9508 77.63 56V53.65C77.6295 51.0935 76.786 48.6085 75.23 46.58V43.33C75.2121 41.7844 74.8863 40.2578 74.2716 38.8396C73.6569 37.4213 72.7657 36.1398 71.65 35.07V33.32C71.65 30.217 70.4173 27.241 68.2232 25.0468C66.029 22.8527 63.053 21.62 59.95 21.62C56.847 21.62 53.871 22.8527 51.6768 25.0468C49.4827 27.241 48.25 30.217 48.25 33.32V35.09C47.14 36.161 46.2537 37.4418 45.6426 38.858C45.0315 40.2742 44.7077 41.7977 44.69 43.34V46.55C43.122 48.5848 42.2711 51.0811 42.27 53.65V56C42.2736 56.9374 42.3911 57.8709 42.62 58.78C40.709 59.7672 39.1072 61.2621 37.9905 63.1003C36.8738 64.9386 36.2854 67.0491 36.29 69.2V71.59C36.2911 73.0983 36.5831 74.5923 37.15 75.99C37.05 76.2 36.94 76.41 36.84 76.63L36.63 77.1C36.3416 77.4725 36.0777 77.8633 35.84 78.27C33.5433 82.203 30.5474 85.6835 27 88.54V88.6H26.49C23.3904 88.6026 20.4186 89.8351 18.2268 92.0268C16.0351 94.2186 14.8026 97.1904 14.8 100.29V102.68C14.8026 105.78 16.0348 108.753 18.2262 110.947C20.4177 113.14 23.3895 114.375 26.49 114.38H93.49C96.5905 114.375 99.5623 113.14 101.754 110.947C103.945 108.753 105.177 105.78 105.18 102.68V100.29C105.179 98.751 104.874 97.2274 104.283 95.8064C103.692 94.3854 102.826 93.095 101.735 92.0091C100.645 90.9232 99.3508 90.0631 97.9274 89.4781C96.5039 88.8931 94.979 88.5947 93.44 88.6V88.6Z" fill="#222226"/>
<path d="M93.44 99.1H26.47C25.8073 99.1 25.27 99.6373 25.27 100.3V102.68C25.27 103.343 25.8073 103.88 26.47 103.88H93.44C94.1027 103.88 94.64 103.343 94.64 102.68V100.3C94.64 99.6373 94.1027 99.1 93.44 99.1Z" fill="#C0CAF5"/>
<path d="M57.56 87.14V96.7H62.34V87.14C70.71 87.14 77.89 96.7 77.89 96.7H86.26C81.739 93.0371 77.9233 88.581 75 83.55H62.34V81.16H73.63C73.2 80.35 72.79 79.57 72.44 78.76H62.34V76.37H71.19C70.61 75.18 70 74 69.52 72.78H71.91C72.0671 72.7813 72.2229 72.7515 72.3685 72.6923C72.514 72.6331 72.6464 72.5457 72.7579 72.435C72.8695 72.3244 72.958 72.1928 73.0185 72.0477C73.0789 71.9027 73.11 71.7471 73.11 71.59V69.2C73.11 68.8817 72.9836 68.5765 72.7585 68.3515C72.5335 68.1264 72.2283 68 71.91 68H67.13C66.24 65.23 65.44 62.4 64.73 59.63H55.17C54.47 62.4 53.67 65.23 52.77 68H48C47.6817 68 47.3765 68.1264 47.1515 68.3515C46.9264 68.5765 46.8 68.8817 46.8 69.2V71.59C46.8 71.7471 46.8311 71.9027 46.8915 72.0477C46.952 72.1928 47.0405 72.3244 47.1521 72.435C47.2636 72.5457 47.396 72.6331 47.5415 72.6923C47.6871 72.7515 47.8429 72.7813 48 72.78H50.39C49.87 73.98 49.3 75.18 48.72 76.37H57.57V78.76H47.51C47.11 79.57 46.7 80.35 46.32 81.16H57.56V83.55H44.92C41.9907 88.5827 38.1682 93.0389 33.64 96.7H42C42 96.7 49.19 87.14 57.56 87.14Z" fill="#C0CAF5"/>
<path d="M65.92 52.45H53.97C53.3073 52.45 52.77 52.9873 52.77 53.65V56.03C52.77 56.6928 53.3073 57.23 53.97 57.23H65.92C66.5827 57.23 67.12 56.6928 67.12 56.03V53.65C67.12 52.9873 66.5827 52.45 65.92 52.45Z" fill="#C0CAF5"/>
<path d="M61.15 37.12V33.32C61.15 33.0017 61.0236 32.6965 60.7985 32.4715C60.5735 32.2464 60.2683 32.12 59.95 32.12C59.6317 32.12 59.3265 32.2464 59.1015 32.4715C58.8764 32.6965 58.75 33.0017 58.75 33.32V37.12C59.5237 36.8301 60.3763 36.8301 61.15 37.12Z" fill="#C0CAF5"/>
<path d="M56.36 47.67H57.76C57.62 48.45 57.46 49.25 57.29 50.06H62.61C62.44 49.25 62.28 48.45 62.14 47.67H63.54C63.6971 47.67 63.8527 47.6389 63.9977 47.5785C64.1427 47.518 64.2744 47.4295 64.385 47.3179C64.4956 47.2064 64.5831 47.074 64.6423 46.9285C64.7015 46.7829 64.7313 46.6271 64.73 46.47V43.47C64.7308 43.2899 64.6896 43.1121 64.6098 42.9507C64.5299 42.7893 64.4136 42.6487 64.27 42.54L60.68 39.54C60.4723 39.3842 60.2196 39.3 59.96 39.3C59.7004 39.3 59.4477 39.3842 59.24 39.54L55.66 42.54C55.5151 42.6482 55.3973 42.7884 55.3158 42.9498C55.2342 43.1111 55.1912 43.2892 55.19 43.47V46.47C55.1899 46.7831 55.3122 47.0839 55.5308 47.3081C55.7494 47.5323 56.047 47.6622 56.36 47.67V47.67Z" fill="#C0CAF5"/>
</g>
<defs>
<clipPath id="clip0_1_2">
<rect width="119.9" height="119.9" fill="white"/>
</clipPath>
</defs>
</svg>
